<svg width="22" height="18" viewBox="0 0 22 18" fill="none" xmlns="http://www.w3.org/2000/svg">
<path fill-rule="evenodd" clip-rule="evenodd" d="M5.37276 0.750003L5.375 0.75H16.625L16.6272 0.750003C17.3222 0.752079 17.9881 1.02907 18.4795 1.52048C18.9709 2.0119 19.2479 2.6778 19.25 3.37276L19.25 3.375V8.25C19.25 8.66421 18.9142 9 18.5 9H3.5C3.08579 9 2.75 8.66421 2.75 8.25V3.375L2.75 3.37276C2.75208 2.6778 3.02907 2.0119 3.52048 1.52048C4.0119 1.02907 4.6778 0.752079 5.37276 0.750003ZM5.37626 2.25C5.07792 2.25115 4.79212 2.37017 4.58114 2.58114C4.37017 2.79212 4.25115 3.07792 4.25 3.37626V7.5H17.75V3.37639C17.7489 3.07801 17.6299 2.79215 17.4189 2.58114C17.2079 2.37017 16.9221 2.25115 16.6237 2.25H5.37626Z" fill="white"/>
<path fill-rule="evenodd" clip-rule="evenodd" d="M4.24778 7.5L4.25 7.5H17.75L17.7522 7.5C18.7453 7.50294 19.6968 7.89874 20.3991 8.60094C21.1013 9.30315 21.4971 10.2547 21.5 11.2478L21.5 11.25V16.5C21.5 16.9142 21.1642 17.25 20.75 17.25C20.3358 17.25 20 16.9142 20 16.5V11.2513C19.998 10.6549 19.7602 10.0834 19.3384 9.66161C18.9166 9.23986 18.3452 9.00203 17.7488 9H4.25119C3.65478 9.00203 3.08335 9.23986 2.66161 9.66161C2.23986 10.0834 2.00203 10.6548 2 11.2512V16.5C2 16.9142 1.66421 17.25 1.25 17.25C0.835786 17.25 0.5 16.9142 0.5 16.5V11.25L0.500003 11.2478C0.502938 10.2547 0.898735 9.30315 1.60094 8.60094C2.30315 7.89874 3.25471 7.50294 4.24778 7.5Z" fill="white"/>
<path fill-rule="evenodd" clip-rule="evenodd" d="M2.37282 14.25L2.375 14.25H19.625L19.6272 14.25C20.1234 14.2514 20.599 14.4492 20.9499 14.8001C21.3008 15.151 21.4986 15.6266 21.5 16.1228L21.5 16.125V16.5C21.5 16.9142 21.1642 17.25 20.75 17.25C20.3358 17.25 20 16.9142 20 16.5V16.1264C19.9995 16.0268 19.9597 15.9313 19.8892 15.8608C19.8187 15.7903 19.7233 15.7505 19.6236 15.75H2.37638C2.27672 15.7505 2.18127 15.7903 2.11079 15.8608C2.04031 15.9313 2.0005 16.0267 2 16.1264V16.5C2 16.9142 1.66421 17.25 1.25 17.25C0.835786 17.25 0.5 16.9142 0.5 16.5V16.125L0.500003 16.1228C0.501444 15.6266 0.699221 15.151 1.05013 14.8001C1.40104 14.4492 1.87656 14.2514 2.37282 14.25Z" fill="white"/>
<path fill-rule="evenodd" clip-rule="evenodd" d="M5.7479 5.25L5.75 5.25H9.5L9.5021 5.25C10.0978 5.25167 10.6686 5.48904 11.0898 5.91024C11.511 6.33144 11.7483 6.90223 11.75 7.4979L11.75 7.5V8.25C11.75 8.66421 11.4142 9 11 9C10.5858 9 10.25 8.66421 10.25 8.25V7.50125C10.2492 7.30226 10.1698 7.11163 10.0291 6.9709C9.88838 6.83018 9.69776 6.75079 9.49877 6.75H5.75123C5.55224 6.75079 5.36162 6.83018 5.2209 6.9709C5.08018 7.11162 5.00079 7.30224 5 7.50123V8.25C5 8.66421 4.66421 9 4.25 9C3.83579 9 3.5 8.66421 3.5 8.25V7.5L3.5 7.4979C3.50167 6.90223 3.73904 6.33144 4.16024 5.91024C4.58144 5.48904 5.15223 5.25167 5.7479 5.25Z" fill="white"/>
<path fill-rule="evenodd" clip-rule="evenodd" d="M12.4979 5.25L12.5 5.25H16.25L16.2521 5.25C16.8478 5.25167 17.4186 5.48904 17.8398 5.91024C18.261 6.33144 18.4983 6.90223 18.5 7.4979L18.5 7.5V8.25C18.5 8.66421 18.1642 9 17.75 9C17.3358 9 17 8.66421 17 8.25V7.50125C16.9992 7.30226 16.9198 7.11162 16.7791 6.9709C16.6384 6.83018 16.4478 6.75079 16.2488 6.75H12.5012C12.3022 6.75079 12.1116 6.83018 11.9709 6.9709C11.8302 7.11162 11.7508 7.30224 11.75 7.50123V8.25C11.75 8.66421 11.4142 9 11 9C10.5858 9 10.25 8.66421 10.25 8.25V7.5L10.25 7.4979C10.2517 6.90223 10.489 6.33144 10.9102 5.91024C11.3314 5.48904 11.9022 5.25167 12.4979 5.25Z" fill="white"/>
</svg>
