<svg width="16" height="16" viewBox="0 0 16 16" fill="none" xmlns="http://www.w3.org/2000/svg">
<path d="M7.99997 6.20761V8.29953C7.99997 8.43532 8.05392 8.56555 8.14994 8.66157L9.27997 9.79161M1.59998 4.67161V4.15961C1.59998 2.74576 2.74613 1.59961 4.15998 1.59961H4.67198M11.328 1.59961L11.84 1.59961C13.2538 1.59961 14.4 2.74576 14.4 4.15961V4.67161M3.90398 12.6076L2.11198 14.3996M13.888 14.3996L12.096 12.6076M13.632 8.51161C13.632 11.6221 11.1104 14.1436 7.99997 14.1436C4.88951 14.1436 2.36798 11.6221 2.36798 8.51161C2.36798 5.40114 4.88951 2.87961 7.99997 2.87961C11.1104 2.87961 13.632 5.40114 13.632 8.51161Z" stroke="#767676" stroke-width="1.33333" stroke-linecap="round"/>
</svg>
