<svg width="12" height="14" viewBox="0 0 12 14" fill="none" xmlns="http://www.w3.org/2000/svg">
<path d="M4 10.0007C3.53333 10.0007 3.13889 9.83954 2.81667 9.51732C2.49444 9.1951 2.33333 8.80065 2.33333 8.33398C2.33333 7.86732 2.49444 7.47287 2.81667 7.15065C3.13889 6.82843 3.53333 6.66732 4 6.66732C4.46667 6.66732 4.86111 6.82843 5.18333 7.15065C5.50556 7.47287 5.66667 7.86732 5.66667 8.33398C5.66667 8.80065 5.50556 9.1951 5.18333 9.51732C4.86111 9.83954 4.46667 10.0007 4 10.0007ZM1.33333 13.6673C0.966667 13.6673 0.652778 13.5368 0.391667 13.2757C0.130556 13.0145 0 12.7007 0 12.334V3.00065C0 2.63398 0.130556 2.3201 0.391667 2.05898C0.652778 1.79787 0.966667 1.66732 1.33333 1.66732H2V0.333984H3.33333V1.66732H8.66667V0.333984H10V1.66732H10.6667C11.0333 1.66732 11.3472 1.79787 11.6083 2.05898C11.8694 2.3201 12 2.63398 12 3.00065V12.334C12 12.7007 11.8694 13.0145 11.6083 13.2757C11.3472 13.5368 11.0333 13.6673 10.6667 13.6673H1.33333ZM1.33333 12.334H10.6667V5.66732H1.33333V12.334Z" fill="#767676"/>
</svg>
