<svg width="16" height="18" viewBox="0 0 16 18" fill="none" xmlns="http://www.w3.org/2000/svg">
<path d="M8.00008 10.5C5.51571 10.5 3.59852 9.73594 2.30008 8.23125C0.11571 5.70469 0.500085 1.98281 0.56571 1.44844V0.75C0.56571 0.3375 0.90321 0 1.31571 0H14.6798C15.0923 0 15.4298 0.3375 15.4298 0.75V1.44844C15.5001 1.98281 15.8798 5.7 13.7001 8.23125C12.4016 9.73594 10.4845 10.5 8.00008 10.5ZM2.06571 1.5C2.06571 1.5375 2.06102 1.575 2.05633 1.60781C2.05165 1.64063 1.57821 5.10938 3.43446 7.25625C4.43759 8.41406 5.9704 9 7.9954 9C10.0204 9 11.5532 8.41406 12.5563 7.25625C14.422 5.11406 13.9438 1.64063 13.9391 1.60781C13.9345 1.57031 13.9298 1.5375 13.9298 1.5H2.06571Z" fill="white"/>
<path d="M8.75 9.75H7.25V17.25H8.75V9.75Z" fill="white"/>
<path d="M12.5 18H3.5C3.0875 18 2.75 17.6625 2.75 17.25C2.75 16.8375 3.0875 16.5 3.5 16.5H12.5C12.9125 16.5 13.25 16.8375 13.25 17.25C13.25 17.6625 12.9125 18 12.5 18Z" fill="white"/>
<path d="M14.75 3.75H1.25V5.25H14.75V3.75Z" fill="white"/>
</svg>
