<svg width="10" height="14" viewBox="0 0 10 14" fill="none" xmlns="http://www.w3.org/2000/svg">
<path d="M5.00004 13.6673C4.84449 13.6673 4.71115 13.6229 4.60004 13.534C4.48893 13.4451 4.4056 13.3284 4.35004 13.184C4.13893 12.5618 3.87226 11.9784 3.55004 11.434C3.23893 10.8895 2.80004 10.2507 2.23337 9.51732C1.66671 8.78398 1.2056 8.08398 0.850041 7.41732C0.505596 6.75065 0.333374 5.94509 0.333374 5.00065C0.333374 3.70065 0.783374 2.60065 1.68337 1.70065C2.59449 0.78954 3.70004 0.333984 5.00004 0.333984C6.30004 0.333984 7.40004 0.78954 8.30004 1.70065C9.21115 2.60065 9.66671 3.70065 9.66671 5.00065C9.66671 6.01176 9.47226 6.85621 9.08337 7.53398C8.7056 8.20065 8.26671 8.86176 7.76671 9.51732C7.16671 10.3173 6.71115 10.984 6.40004 11.5173C6.10004 12.0395 5.85004 12.5951 5.65004 13.184C5.59449 13.3395 5.5056 13.4618 5.38337 13.5507C5.27226 13.6284 5.14449 13.6673 5.00004 13.6673ZM5.00004 6.66732C5.46671 6.66732 5.86115 6.50621 6.18337 6.18398C6.5056 5.86176 6.66671 5.46732 6.66671 5.00065C6.66671 4.53398 6.5056 4.13954 6.18337 3.81732C5.86115 3.4951 5.46671 3.33398 5.00004 3.33398C4.53337 3.33398 4.13893 3.4951 3.81671 3.81732C3.49449 4.13954 3.33337 4.53398 3.33337 5.00065C3.33337 5.46732 3.49449 5.86176 3.81671 6.18398C4.13893 6.50621 4.53337 6.66732 5.00004 6.66732Z" fill="#767676"/>
</svg>
