<svg width="147" height="48" viewBox="0 0 147 48" fill="none" xmlns="http://www.w3.org/2000/svg">
<g clip-path="url(#clip0_307_3649)">
<path d="M45.8663 44.7806C46.0399 45.2847 46.327 45.739 46.7039 46.1063C47.0809 46.4737 47.5369 46.7434 48.0346 46.8935L46.8926 47.137C46.2036 47.2754 45.5034 47.3454 44.8014 47.3459C44.3489 47.345 43.8968 47.3167 43.4474 47.2613L43.1583 47.2067C42.5896 47.1315 42.0559 46.8819 41.6264 46.4901C41.1968 46.0983 40.8912 45.5824 40.7491 45.0093C40.7491 45.0093 39.8866 41.5889 39.5975 40.4703C39.2313 39.0982 38.5182 38.0841 36.9281 37.8902H35.2658V45.243C35.2656 45.5673 35.3614 45.884 35.5405 46.1506C35.7197 46.4172 35.9735 46.6209 36.268 46.7344L36.692 46.9282H29.5078L29.9366 46.7393C30.2348 46.6273 30.4932 46.425 30.6781 46.1588C30.8629 45.8927 30.9655 45.5752 30.9726 45.2479L31.0207 29.558C31.0143 29.2258 30.913 28.9028 30.7296 28.6296C30.5462 28.3564 30.2889 28.145 29.9897 28.0219L29.5705 27.8578L39.106 27.8876C44.3003 27.8876 45.4856 30.1795 45.476 32.9386C45.476 35.1261 44.6954 37.0102 41.7562 37.6863C42.4317 37.9624 43.0405 38.3876 43.5399 38.9321C44.0393 39.4766 44.4172 40.1271 44.6472 40.8382L45.8663 44.7806ZM35.2658 37.1345H36.1138C38.682 37.1345 41.125 36.5529 41.1346 32.9138C41.1443 29.2747 38.6821 28.6681 36.1379 28.6632H35.2899L35.2658 37.1345Z" fill="#0E131E"/>
<path d="M62.1286 43.4135L61.165 47.0178L48.9744 46.978L49.3454 46.8139C49.6066 46.7157 49.8329 46.5383 49.9946 46.305C50.1562 46.0716 50.2457 45.7932 50.2513 45.5064L50.2898 31.8648C50.2885 31.5741 50.2022 31.2905 50.0423 31.051C49.8825 30.8116 49.6564 30.6274 49.3936 30.5225L49.0226 30.3834L60.659 30.4231L60.8614 33.3761V33.3463C60.5757 32.6788 60.1089 32.1109 59.5172 31.7113C58.9255 31.3117 58.2342 31.0974 57.527 31.0942H54.0048L53.9807 38.1189H57.1608C57.4256 38.1167 57.6848 38.0395 57.9099 37.8957C58.1351 37.752 58.3177 37.5471 58.4377 37.3036L58.5727 36.9755V39.7943L58.4377 39.4612C58.3265 39.2123 58.1474 39.0022 57.9224 38.8565C57.6973 38.7109 57.4361 38.636 57.1705 38.6409H53.9903V46.3218H57.7535C58.6166 46.3211 59.4636 46.0813 60.2061 45.6275C60.9486 45.1736 61.5594 44.5223 61.9745 43.7416L62.1286 43.4135Z" fill="#0E131E"/>
<path d="M74.1891 42.275C74.1891 45.6953 71.0475 47.2713 68.0263 47.2464C66.5384 47.3131 65.0788 46.8123 63.9259 45.8395C63.877 45.8103 63.8229 45.7917 63.7669 45.7848C63.6386 45.8047 63.5183 45.8616 63.42 45.9489L63.0586 43.6223C63.3508 44.3029 63.8029 44.8975 64.374 45.3523C65.4189 46.1853 66.7112 46.6192 68.0312 46.5803C70.3055 46.5803 72.1123 45.3076 72.1172 43.9156C72.1172 42.6031 69.8188 41.584 67.8336 40.5648C65.6942 39.491 63.5742 38.4172 63.5886 34.5991C63.5886 32.004 66.0942 30.1795 69.1105 30.1894C70.1642 30.2217 71.2004 30.4754 72.1558 30.9351C72.2465 30.9853 72.3469 31.0141 72.4497 31.0196C72.5758 31.0196 72.6975 30.9719 72.7918 30.8854L73.158 33.3712C73.158 33.3712 72.4496 30.8854 69.1105 30.8854C66.9085 30.8854 65.3714 31.9393 65.3666 33.2518C65.3666 34.7432 67.824 35.8568 70.0453 36.9307C72.2666 38.0045 74.1987 39.4065 74.1891 42.275Z" fill="#0E131E"/>
<path d="M92.5375 38.8099C92.5375 44.358 88.4563 47.326 84.139 47.3111C79.8217 47.2962 75.7743 44.3282 75.7935 38.7552C75.8128 33.1823 79.8988 30.2392 84.192 30.2541C88.4852 30.269 92.5568 33.2568 92.5375 38.8099ZM88.1672 38.8099C88.1672 34.5444 87.2035 30.9898 84.1872 30.9799C81.1131 30.9799 80.1783 34.5195 80.1639 38.785C80.1494 43.0505 81.0119 46.635 84.139 46.6449C87.2662 46.6549 88.1528 43.0605 88.1672 38.795V38.8099Z" fill="#0E131E"/>
<path d="M108.366 45.2578C108.508 45.6997 108.753 46.0987 109.08 46.4195C109.407 46.7403 109.806 46.9731 110.24 47.0973L109.233 47.311C108.651 47.4411 108.056 47.5028 107.46 47.495C107.06 47.4941 106.661 47.4659 106.265 47.4105L106 47.3806C105.508 47.3095 105.046 47.0893 104.675 46.7477C104.304 46.4061 104.039 45.9586 103.914 45.4617C103.914 45.4617 103.153 42.5086 102.892 41.5193C102.603 40.3162 101.972 39.4413 100.57 39.2723H99.1244V45.6705C99.1269 45.9573 99.214 46.2365 99.3741 46.471C99.5342 46.7054 99.7597 46.884 100.021 46.983L100.392 47.152H94.1277L94.4987 46.9879C94.761 46.89 94.9882 46.7119 95.15 46.4775C95.3118 46.243 95.4007 45.9633 95.4046 45.6755L95.4479 32.0338C95.4409 31.7445 95.3524 31.4635 95.1932 31.2252C95.0341 30.9868 94.8112 30.8014 94.5517 30.6916L94.1807 30.5573H102.473C107.002 30.5573 108.034 32.516 108.024 34.952C108.024 36.8362 107.349 38.4718 104.781 39.0684C105.368 39.3079 105.896 39.6773 106.329 40.1506C106.762 40.624 107.089 41.1897 107.287 41.8077L108.366 45.2578ZM99.1147 38.5862H99.8327C102.088 38.5862 104.208 38.089 104.217 34.9371C104.227 31.7852 102.083 31.2384 99.8568 31.2334H99.1147V38.5862Z" fill="#0E131E"/>
<path d="M123.544 30.6269L123.746 33.5799V33.5501C123.465 32.8858 123.003 32.3196 122.416 31.92C121.83 31.5204 121.144 31.3044 120.441 31.2981H118.374L118.331 45.7152C118.328 45.9992 118.41 46.277 118.565 46.5116C118.72 46.7462 118.941 46.9263 119.198 47.0277L119.569 47.1917H113.305L113.676 47.0277C113.937 46.9305 114.164 46.7531 114.325 46.5195C114.486 46.2858 114.574 46.0069 114.577 45.7202L114.625 31.303H112.529C111.827 31.3079 111.14 31.5209 110.552 31.9166C109.963 32.3123 109.497 32.8741 109.209 33.5352L109.431 30.612L123.544 30.6269Z" fill="#0E131E"/>
<path d="M46.8301 16.5677C46.8301 22.1158 42.7489 25.0837 38.4316 25.0688C34.1143 25.0539 30.0669 22.086 30.0813 16.513C30.0958 10.94 34.1915 7.99692 38.4799 8.01184C42.7682 8.02675 46.8542 11.0146 46.8301 16.5677ZM42.455 16.5677C42.455 12.3022 41.4914 8.74759 38.4799 8.73765C35.4057 8.73765 34.4661 12.2773 34.4564 16.5428C34.4468 20.8083 35.3045 24.3927 38.4316 24.4027C41.5588 24.4126 42.455 20.8182 42.4646 16.5527L42.455 16.5677Z" fill="#0E131E"/>
<path d="M63.4006 8.35985L63.0007 8.54877C62.7636 8.66232 62.5628 8.84335 62.422 9.07055C62.2812 9.29776 62.2061 9.56168 62.2057 9.83138L62.1719 19.5655C62.1719 20.2911 62.0329 21.0096 61.7627 21.6796C61.4926 22.3496 61.0966 22.9578 60.5978 23.4693C60.0989 23.9808 59.5068 24.3854 58.8558 24.6599C58.2047 24.9345 57.5075 25.0734 56.8042 25.0689H54.6311C53.9276 25.0682 53.2311 24.9241 52.5817 24.6448C51.9324 24.3656 51.3429 23.9566 50.8472 23.4415C50.3515 22.9264 49.9594 22.3152 49.6933 21.6432C49.4273 20.9712 49.2927 20.2516 49.2971 19.5257L49.3261 9.7966C49.3241 9.50602 49.2375 9.22271 49.0778 8.9834C48.918 8.7441 48.6922 8.55982 48.4298 8.45434L48.0588 8.31512H54.3228L53.9517 8.44936C53.6916 8.55517 53.4684 8.7393 53.3112 8.97782C53.1539 9.21634 53.0698 9.49817 53.0699 9.78665L53.0411 19.5207C53.0411 22.4439 55.1467 24.3927 56.9488 24.3977H57.3198C59.623 24.3977 61.5407 21.9518 61.5456 19.5456L61.5793 9.81651C61.5788 9.54296 61.5011 9.27545 61.3556 9.04676C61.2102 8.81807 61.0032 8.63809 60.7602 8.52886L60.3891 8.33497L63.4006 8.35985Z" fill="#0E131E"/>
<path d="M80.2264 8.47914L79.8313 8.66806C79.5899 8.77622 79.3851 8.95582 79.2427 9.18414C79.1004 9.41246 79.0268 9.67921 79.0314 9.95067L78.9832 25.0688L66.8409 9.88604L66.8023 23.5277C66.7961 23.802 66.8676 24.0722 67.008 24.3053C67.1483 24.5384 67.3514 24.7243 67.5925 24.8402L67.9876 25.0341H64.9424L65.3375 24.8451C65.5774 24.7267 65.7799 24.5406 65.9215 24.3083C66.063 24.076 66.1379 23.8071 66.1373 23.5327L66.1807 9.92087C66.181 9.651 66.1069 9.3866 65.9669 9.15859C65.827 8.93058 65.6271 8.74841 65.3905 8.63329L64.9906 8.43939H69.9728L78.3424 18.6358L78.3713 9.94575C78.3706 9.67547 78.2955 9.41094 78.1547 9.18298C78.014 8.95503 77.8134 8.773 77.5763 8.65811L77.1812 8.46421L80.2264 8.47914Z" fill="#0E131E"/>
<path d="M96.1272 8.48911L96.3295 11.4421V11.4123C96.0497 10.7476 95.5889 10.181 95.003 9.78119C94.4171 9.38142 93.7313 9.1657 93.0289 9.16024H90.9618L90.9136 23.5774C90.9113 23.8626 90.9936 24.1417 91.1495 24.3772C91.3054 24.6127 91.5275 24.7934 91.7858 24.8949L92.1568 25.0589H85.8928L86.2639 24.8949C86.5254 24.7972 86.7521 24.6199 86.9139 24.3864C87.0756 24.153 87.1648 23.8743 87.1697 23.5874L87.2131 9.1702H85.1219C84.4194 9.17506 83.7331 9.38802 83.1445 9.78374C82.556 10.1795 82.09 10.7413 81.802 11.4024L82.0237 8.47418L96.1272 8.48911Z" fill="#0E131E"/>
<path d="M110.255 25.0688H104.135L104.747 24.8252C104.833 24.7917 104.911 24.7409 104.978 24.6759C105.045 24.6109 105.098 24.5329 105.135 24.4464C105.172 24.36 105.193 24.2668 105.195 24.1723C105.197 24.0777 105.181 23.9837 105.147 23.8956L103.461 19.819H98.4545L96.7439 23.8856C96.6803 24.0532 96.6801 24.2394 96.7435 24.407C96.8069 24.5747 96.9292 24.7116 97.0861 24.7905L97.6161 25.0639H94.5708L95.1009 24.7905C95.5839 24.563 95.9647 24.1541 96.1657 23.647L102.463 8.43939L108.776 23.7713C108.882 24.0499 109.042 24.3031 109.247 24.5151C109.451 24.7272 109.696 24.8936 109.966 25.0042L110.255 25.0688ZM100.965 13.8284L98.7484 19.0981H103.172L100.965 13.8284Z" fill="#0E131E"/>
<path d="M117.068 24.9048L117.439 25.0689H111.175L111.546 24.9048C111.808 24.8072 112.034 24.6299 112.196 24.3964C112.358 24.1629 112.447 23.8843 112.452 23.5973L112.495 9.95566C112.492 9.66539 112.405 9.38273 112.245 9.14368C112.086 8.90462 111.861 8.72001 111.599 8.6134L111.228 8.47418H117.492L117.116 8.60842C116.854 8.7128 116.627 8.896 116.467 9.13439C116.306 9.37278 116.218 9.65545 116.215 9.94577L116.172 23.5874C116.174 23.8749 116.261 24.1548 116.421 24.3901C116.581 24.6254 116.807 24.805 117.068 24.9048Z" fill="#0E131E"/>
<path d="M134.318 8.47914L133.918 8.66806C133.677 8.7773 133.473 8.95716 133.331 9.18523C133.189 9.4133 133.115 9.67949 133.118 9.95067L133.075 25.0688L120.932 9.88604L120.889 23.5277C120.884 23.8018 120.956 24.0715 121.096 24.3044C121.236 24.5372 121.439 24.7233 121.679 24.8402L122.079 25.0341H119.029L119.429 24.8451C119.666 24.723 119.866 24.536 120.007 24.3046C120.148 24.0731 120.225 23.8061 120.229 23.5327L120.267 9.92087C120.269 9.65074 120.195 9.38585 120.055 9.15762C119.915 8.92939 119.714 8.74742 119.477 8.63329L119.082 8.43939H124.064L132.429 18.6358L132.458 9.94575C132.458 9.67588 132.384 9.41148 132.244 9.18347C132.104 8.95546 131.904 8.77323 131.668 8.65811L131.268 8.46421L134.318 8.47914Z" fill="#0E131E"/>
<path d="M147 20.0874C147 23.5028 143.858 25.0589 140.837 25.0589C139.35 25.1209 137.892 24.6206 136.737 23.652C136.689 23.6206 136.634 23.6018 136.578 23.5973C136.449 23.6172 136.329 23.674 136.231 23.7613L135.869 21.4347C136.162 22.1152 136.616 22.7085 137.19 23.1598C138.233 23.9915 139.524 24.4221 140.842 24.3778C143.121 24.3778 144.923 23.1051 144.928 21.7081C144.928 20.3957 142.63 19.3765 140.649 18.3623C138.505 17.2885 136.385 16.2147 136.399 12.3966C136.399 9.79655 138.905 7.97203 141.926 7.98197C142.979 8.01534 144.013 8.27083 144.967 8.73267C145.058 8.78051 145.158 8.80925 145.26 8.8172C145.388 8.81929 145.511 8.76923 145.603 8.67799L145.969 11.1637C145.969 11.1637 145.26 8.67799 141.921 8.67799C139.724 8.67799 138.182 9.73194 138.177 11.0444C138.177 12.5358 140.635 13.6494 142.856 14.7233C145.077 15.7971 147.01 17.2139 147 20.0874Z" fill="#0E131E"/>
<path d="M28.2359 24.8203L28.7803 25.0688L19.529 25.039L20.0734 24.8302C20.4574 24.6746 20.7887 24.4059 21.026 24.0577C21.2632 23.7095 21.3961 23.297 21.4082 22.8715L21.466 2.57805L12.0749 25.0142L2.78982 2.44879L2.72718 22.772C2.72685 23.1771 2.83812 23.574 3.04797 23.9164C3.25783 24.2588 3.55767 24.5326 3.91255 24.7059L4.49073 24.9893H0L0.578185 24.7109C0.934457 24.5412 1.23627 24.2699 1.44799 23.929C1.65972 23.5881 1.77253 23.1919 1.77314 22.787L1.83578 2.70731C1.83578 1.86217 7.49259 0.514893 7.49259 0.514893L14.3155 17.0698L21.201 0.559679C21.201 0.559679 26.9831 1.91187 26.9831 2.75204L26.9204 22.9013C26.9202 23.3223 27.0466 23.733 27.2822 24.0767C27.5178 24.4205 27.851 24.6803 28.2359 24.8203Z" fill="#0E131E"/>
</g>
<defs>
<clipPath id="clip0_307_3649">
<rect width="147" height="47" fill="white" transform="translate(0 0.5)"/>
</clipPath>
</defs>
</svg>
