<svg width="135" height="42" viewBox="0 0 135 42" fill="none" xmlns="http://www.w3.org/2000/svg">
<g clip-path="url(#clip0_54_830)">
<path d="M42.1222 39.5698C42.2817 40.0202 42.5453 40.4263 42.8915 40.7545C43.2376 41.0827 43.6565 41.3238 44.1135 41.4579L43.0648 41.6755C42.432 41.7992 41.7889 41.8617 41.1443 41.8621C40.7287 41.8613 40.3135 41.8361 39.9008 41.7866L39.6353 41.7377C39.1131 41.6706 38.6229 41.4475 38.2284 41.0974C37.8339 40.7473 37.5533 40.2862 37.4228 39.7741C37.4228 39.7741 36.6307 36.7176 36.3652 35.718C36.0289 34.4919 35.374 33.5856 33.9137 33.4124H32.3871V39.983C32.3868 40.2728 32.4749 40.5558 32.6394 40.794C32.8039 41.0322 33.037 41.2143 33.3075 41.3157L33.6969 41.4889H27.0991L27.4929 41.3201C27.7667 41.22 28.0041 41.0392 28.1738 40.8014C28.3436 40.5636 28.4378 40.2798 28.4443 39.9873L28.4885 25.9666C28.4826 25.6697 28.3896 25.3811 28.2212 25.137C28.0528 24.8928 27.8164 24.7039 27.5416 24.5939L27.1566 24.4473L35.9138 24.4739C40.684 24.4739 41.7726 26.522 41.7638 28.9876C41.7638 30.9423 41.0469 32.626 38.3476 33.2302C38.968 33.4769 39.5271 33.8569 39.9857 34.3435C40.4444 34.83 40.7914 35.4114 41.0027 36.0468L42.1222 39.5698ZM32.3871 32.7371H33.1659C35.5244 32.7371 37.768 32.2173 37.7768 28.9654C37.7857 25.7134 35.5245 25.1714 33.188 25.167H32.4092L32.3871 32.7371Z" fill="white"/>
<path d="M57.0568 38.348L56.1718 41.5689L44.9763 41.5334L45.3171 41.3867C45.5569 41.299 45.7648 41.1404 45.9132 40.9319C46.0617 40.7234 46.1439 40.4746 46.149 40.2183L46.1844 28.028C46.1832 27.7682 46.1039 27.5147 45.9571 27.3007C45.8103 27.0868 45.6027 26.9222 45.3613 26.8285L45.0206 26.7041L55.7071 26.7396L55.893 29.3785V29.3519C55.6306 28.7554 55.2019 28.2479 54.6585 27.8908C54.1151 27.5336 53.4803 27.3421 52.8308 27.3394H49.5961L49.574 33.6167H52.4945C52.7377 33.6147 52.9757 33.5458 53.1825 33.4173C53.3893 33.2888 53.5569 33.1057 53.6672 32.8881L53.7911 32.5949V35.1138L53.6672 34.8162C53.565 34.5938 53.4005 34.406 53.1939 34.2759C52.9872 34.1457 52.7473 34.0788 52.5034 34.0832H49.5828V40.9469H53.0388C53.8314 40.9464 54.6093 40.7321 55.2912 40.3265C55.9731 39.9209 56.534 39.3389 56.9152 38.6413L57.0568 38.348Z" fill="white"/>
<path d="M68.1328 37.3306C68.1328 40.3871 65.2476 41.7954 62.4731 41.7732C61.1066 41.8328 59.7661 41.3853 58.7074 40.516C58.6625 40.4899 58.6128 40.4733 58.5614 40.4671C58.4435 40.4849 58.3331 40.5357 58.2428 40.6137L57.9109 38.5346C58.1792 39.1428 58.5944 39.6742 59.1189 40.0806C60.0786 40.825 61.2653 41.2127 62.4775 41.1779C64.5662 41.1779 66.2256 40.0406 66.23 38.7967C66.23 37.6239 64.1192 36.7132 62.2961 35.8024C60.3314 34.8428 58.3844 33.8832 58.3976 30.4713C58.3976 28.1523 60.6987 26.5219 63.4687 26.5308C64.4364 26.5596 65.3881 26.7864 66.2654 27.1972C66.3488 27.242 66.4409 27.2678 66.5353 27.2727C66.6512 27.2726 66.7629 27.23 66.8495 27.1528L67.1858 29.374C67.1858 29.374 66.5353 27.1528 63.4687 27.1528C61.4465 27.1528 60.0349 28.0945 60.0305 29.2674C60.0305 30.6001 62.2873 31.5953 64.3272 32.5549C66.3672 33.5145 68.1416 34.7673 68.1328 37.3306Z" fill="white"/>
<path d="M84.9834 34.2341C84.9834 39.192 81.2354 41.8442 77.2705 41.8308C73.3057 41.8175 69.5886 39.1653 69.6063 34.1852C69.624 29.2051 73.3764 26.5751 77.3192 26.5884C81.2619 26.6018 85.0011 29.2717 84.9834 34.2341ZM80.9699 34.2341C80.9699 30.4223 80.0848 27.2459 77.3148 27.237C74.4916 27.237 73.6331 30.4001 73.6198 34.2118C73.6066 38.0236 74.3986 41.2267 77.2705 41.2356C80.1424 41.2444 80.9566 38.0324 80.9699 34.2207V34.2341Z" fill="white"/>
<path d="M99.5197 39.996C99.65 40.3909 99.8753 40.7474 100.176 41.0341C100.476 41.3208 100.842 41.5288 101.241 41.6398L100.316 41.8308C99.7813 41.947 99.235 42.0021 98.6877 41.9952C98.3207 41.9943 97.9541 41.9691 97.5903 41.9197L97.347 41.893C96.8945 41.8295 96.4709 41.6326 96.1298 41.3274C95.7888 41.0221 95.5455 40.6222 95.4309 40.1782C95.4309 40.1782 94.7317 37.5393 94.4928 36.6552C94.2273 35.5801 93.6476 34.7982 92.3599 34.6472H91.0324V40.3648C91.0347 40.6211 91.1147 40.8706 91.2617 41.0801C91.4087 41.2896 91.6158 41.4492 91.8555 41.5376L92.1962 41.6887H86.4436L86.7843 41.542C87.0253 41.4545 87.2339 41.2954 87.3825 41.0859C87.5311 40.8764 87.6127 40.6264 87.6163 40.3692L87.6561 28.1788C87.6496 27.9203 87.5683 27.6692 87.4222 27.4562C87.276 27.2432 87.0713 27.0775 86.833 26.9793L86.4923 26.8594H94.1078C98.2674 26.8594 99.2143 28.6097 99.2055 30.7866C99.2055 32.4703 98.586 33.9319 96.2274 34.465C96.7661 34.679 97.2514 35.0092 97.649 35.4321C98.0466 35.8551 98.3468 36.3606 98.5284 36.9129L99.5197 39.996ZM91.0235 34.0341H91.6829C93.7538 34.0341 95.7008 33.5898 95.7097 30.7732C95.7185 27.9567 93.7494 27.468 91.705 27.4636H91.0235V34.0341Z" fill="white"/>
<path d="M113.459 26.922L113.645 29.5609V29.5343C113.386 28.9406 112.962 28.4347 112.423 28.0776C111.884 27.7205 111.254 27.5275 110.609 27.5218H108.711L108.671 40.4052C108.669 40.6589 108.744 40.9072 108.886 41.1169C109.028 41.3265 109.231 41.4874 109.467 41.578L109.808 41.7246H104.055L104.396 41.578C104.636 41.4911 104.844 41.3327 104.992 41.1239C105.14 40.9151 105.221 40.6659 105.224 40.4097L105.268 27.5262H103.343C102.698 27.5306 102.068 27.7209 101.527 28.0745C100.987 28.4281 100.559 28.9302 100.294 29.5209L100.498 26.9087L113.459 26.922Z" fill="white"/>
<path d="M43.0073 14.3581C43.0073 19.316 39.2593 21.9682 35.2944 21.9549C31.3295 21.9415 27.6125 19.2893 27.6258 14.3092C27.639 9.32911 31.4004 6.69913 35.3387 6.71245C39.277 6.72578 43.0294 9.39574 43.0073 14.3581ZM38.9894 14.3581C38.9894 10.5464 38.1044 7.36993 35.3387 7.36105C32.5155 7.36105 31.6526 10.5241 31.6437 14.3359C31.6349 18.1476 32.4225 21.3507 35.2944 21.3596C38.1663 21.3685 38.9893 18.1565 38.9982 14.3447L38.9894 14.3581Z" fill="white"/>
<path d="M58.2251 7.02337L57.8579 7.19219C57.6401 7.29366 57.4557 7.45543 57.3264 7.65846C57.1971 7.86149 57.1282 8.09734 57.1277 8.33835L57.0967 17.0369C57.0967 17.6854 56.969 18.3274 56.7209 18.9261C56.4728 19.5248 56.1092 20.0684 55.6511 20.5255C55.1929 20.9825 54.6492 21.3441 54.0513 21.5894C53.4534 21.8347 52.8131 21.9589 52.1672 21.9548H50.1715C49.5254 21.9542 48.8858 21.8255 48.2894 21.5759C47.6931 21.3263 47.1517 20.9609 46.6965 20.5006C46.2412 20.0402 45.8811 19.4941 45.6368 18.8936C45.3925 18.2931 45.2689 17.65 45.273 17.0013L45.2995 8.30727C45.2977 8.0476 45.2182 7.79443 45.0715 7.58058C44.9247 7.36673 44.7174 7.20206 44.4764 7.1078L44.1357 6.9834H49.8883L49.5476 7.10336C49.3087 7.19791 49.1037 7.36245 48.9593 7.5756C48.8149 7.78874 48.7376 8.04059 48.7378 8.29838L48.7112 16.9969C48.7112 19.6091 50.645 21.3506 52.3 21.3551H52.6407C54.7559 21.3551 56.5171 19.1693 56.5215 17.0191L56.5525 8.32506C56.5521 8.08061 56.4807 7.84156 56.3471 7.6372C56.2135 7.43284 56.0234 7.272 55.8002 7.1744L55.4595 7.00113L58.2251 7.02337Z" fill="white"/>
<path d="M73.6775 7.13025L73.3146 7.29907C73.0929 7.39572 72.9049 7.55621 72.7741 7.76024C72.6433 7.96427 72.5758 8.20265 72.58 8.44523L72.5358 21.9551L61.3846 8.38747L61.3492 20.5779C61.3435 20.823 61.4092 21.0645 61.5381 21.2728C61.667 21.4811 61.8535 21.6472 62.0749 21.7507L62.4378 21.924H59.6411L60.004 21.7552C60.2243 21.6494 60.4103 21.483 60.5403 21.2755C60.6703 21.0679 60.739 20.8276 60.7385 20.5823L60.7784 8.4186C60.7787 8.17744 60.7105 7.94116 60.582 7.73741C60.4535 7.53366 60.2699 7.37087 60.0527 7.26799L59.6854 7.09473H64.2609L71.9473 16.2064L71.9738 8.44084C71.9731 8.19931 71.9042 7.96292 71.7749 7.75921C71.6456 7.55551 71.4614 7.39284 71.2437 7.29017L70.8808 7.11691L73.6775 7.13025Z" fill="white"/>
<path d="M88.28 7.13883L88.4659 9.77769V9.75106C88.2089 9.15704 87.7857 8.65069 87.2476 8.29345C86.7095 7.93621 86.0798 7.74344 85.4347 7.73856H83.5363L83.4921 20.622C83.4899 20.8769 83.5655 21.1262 83.7087 21.3367C83.8519 21.5472 84.0558 21.7086 84.293 21.7993L84.6337 21.9459H78.8811L79.2219 21.7993C79.4621 21.712 79.6703 21.5536 79.8188 21.3449C79.9674 21.1363 80.0493 20.8873 80.0538 20.6309L80.0937 7.74746H78.1731C77.528 7.75181 76.8977 7.94211 76.3572 8.29573C75.8167 8.64935 75.3888 9.1514 75.1243 9.74216L75.3279 7.12549L88.28 7.13883Z" fill="white"/>
<path d="M101.254 21.9551H95.6346L96.1966 21.7374C96.2753 21.7074 96.3473 21.662 96.4084 21.6039C96.4696 21.5458 96.5186 21.4761 96.5528 21.3989C96.5869 21.3216 96.6055 21.2384 96.6074 21.1539C96.6093 21.0694 96.5945 20.9854 96.5639 20.9066L95.0151 17.2638H90.4175L88.8465 20.8977C88.7881 21.0475 88.7879 21.2139 88.8462 21.3637C88.9044 21.5135 89.0167 21.6359 89.1608 21.7063L89.6475 21.9506H86.8508L87.3376 21.7063C87.7812 21.5031 88.131 21.1376 88.3156 20.6845L94.0991 7.09473L99.896 20.7956C99.9934 21.0445 100.141 21.2708 100.329 21.4603C100.517 21.6498 100.741 21.7985 100.989 21.8973L101.254 21.9551ZM92.7229 11.9105L90.6874 16.6196H94.7496L92.7229 11.9105Z" fill="white"/>
<path d="M107.511 21.8082L107.852 21.9548H102.1L102.44 21.8082C102.681 21.7209 102.889 21.5625 103.037 21.3538C103.186 21.1452 103.268 20.8962 103.272 20.6398L103.312 8.44936C103.309 8.18997 103.229 7.93738 103.083 7.72376C102.936 7.51013 102.729 7.34517 102.489 7.24989L102.148 7.12549H107.901L107.556 7.24545C107.315 7.33872 107.107 7.50243 106.959 7.71546C106.812 7.92849 106.731 8.18109 106.728 8.44052L106.688 20.6309C106.69 20.8878 106.77 21.138 106.917 21.3483C107.064 21.5585 107.272 21.719 107.511 21.8082Z" fill="white"/>
<path d="M123.353 7.13025L122.986 7.29907C122.765 7.39669 122.578 7.55741 122.447 7.76122C122.316 7.96503 122.248 8.2029 122.251 8.44523L122.212 21.9551L111.06 8.38747L111.021 20.5779C111.016 20.8228 111.082 21.0639 111.211 21.2719C111.34 21.48 111.526 21.6463 111.746 21.7507L112.114 21.924H109.312L109.68 21.7552C109.898 21.6461 110.081 21.4789 110.211 21.2721C110.34 21.0653 110.411 20.8267 110.414 20.5823L110.45 8.4186C110.451 8.17721 110.383 7.94049 110.255 7.73654C110.126 7.5326 109.942 7.36999 109.724 7.26799L109.361 7.09473H113.937L121.619 16.2064L121.645 8.44084C121.645 8.19967 121.577 7.9634 121.449 7.75965C121.32 7.5559 121.137 7.39305 120.919 7.29017L120.552 7.11691L123.353 7.13025Z" fill="white"/>
<path d="M135 17.5037C135 20.5557 132.115 21.9463 129.34 21.9463C127.974 22.0017 126.635 21.5547 125.575 20.689C125.531 20.661 125.48 20.6442 125.429 20.6402C125.311 20.658 125.2 20.7088 125.11 20.7868L124.778 18.7077C125.047 19.3157 125.464 19.8459 125.991 20.2492C126.949 20.9924 128.135 21.3773 129.345 21.3376C131.438 21.3376 133.093 20.2003 133.097 18.952C133.097 17.7791 130.986 16.8684 129.168 15.9621C127.199 15.0026 125.252 14.043 125.265 10.6311C125.265 8.30761 127.566 6.67719 130.34 6.68607C131.307 6.71589 132.257 6.94419 133.133 7.3569C133.217 7.39966 133.308 7.42534 133.403 7.43245C133.52 7.43431 133.632 7.38957 133.717 7.30804L134.053 9.52932C134.053 9.52932 133.403 7.30804 130.336 7.30804C128.318 7.30804 126.902 8.24987 126.898 9.42271C126.898 10.7555 129.154 11.7506 131.194 12.7102C133.234 13.6698 135.009 14.9359 135 17.5037Z" fill="white"/>
<path d="M25.9309 21.7329L26.4309 21.955L17.9348 21.9284L18.4348 21.7418C18.7874 21.6027 19.0916 21.3626 19.3095 21.0514C19.5275 20.7402 19.6495 20.3717 19.6606 19.9914L19.7136 1.85686L11.0892 21.9062L2.56208 1.74135L2.50455 19.9026C2.50425 20.2646 2.60643 20.6192 2.79916 20.9252C2.99188 21.2311 3.26725 21.4758 3.59315 21.6307L4.12414 21.8839H0L0.530987 21.6352C0.858175 21.4835 1.13535 21.241 1.32979 20.9364C1.52423 20.6318 1.62783 20.2777 1.6284 19.9159L1.68592 1.97237C1.68592 1.21713 6.88095 0.0131836 6.88095 0.0131836L13.1469 14.8069L19.4703 0.0532057C19.4703 0.0532057 24.7804 1.26154 24.7804 2.01234L24.7229 20.0181C24.7226 20.3943 24.8387 20.7613 25.0551 21.0685C25.2714 21.3756 25.5775 21.6078 25.9309 21.7329Z" fill="white"/>
</g>
<defs>
<clipPath id="clip0_54_830">
<rect width="135" height="42" fill="white"/>
</clipPath>
</defs>
</svg>
