<svg width="16" height="12" viewBox="0 0 16 12" fill="none" xmlns="http://www.w3.org/2000/svg">
<path d="M0 11.3327V9.48268C0 9.10491 0.0944445 8.75491 0.283333 8.43268C0.472222 8.11046 0.733333 7.86602 1.06667 7.69935C1.22222 7.62157 1.37222 7.54935 1.51667 7.48268C1.67222 7.41602 1.83333 7.35491 2 7.29935V11.3327H0ZM2.66667 6.66602C2.11111 6.66602 1.63889 6.47157 1.25 6.08268C0.861111 5.69379 0.666667 5.22157 0.666667 4.66602C0.666667 4.11046 0.861111 3.63824 1.25 3.24935C1.63889 2.86046 2.11111 2.66602 2.66667 2.66602C3.22222 2.66602 3.69444 2.86046 4.08333 3.24935C4.47222 3.63824 4.66667 4.11046 4.66667 4.66602C4.66667 5.22157 4.47222 5.69379 4.08333 6.08268C3.69444 6.47157 3.22222 6.66602 2.66667 6.66602ZM2.66667 5.33268C2.85556 5.33268 3.01111 5.27157 3.13333 5.14935C3.26667 5.01602 3.33333 4.8549 3.33333 4.66602C3.33333 4.47713 3.26667 4.32157 3.13333 4.19935C3.01111 4.06602 2.85556 3.99935 2.66667 3.99935C2.47778 3.99935 2.31667 4.06602 2.18333 4.19935C2.06111 4.32157 2 4.47713 2 4.66602C2 4.8549 2.06111 5.01602 2.18333 5.14935C2.31667 5.27157 2.47778 5.33268 2.66667 5.33268ZM2.66667 11.3327V9.46602C2.66667 9.08824 2.76111 8.74379 2.95 8.43268C3.15 8.11046 3.41111 7.86602 3.73333 7.69935C4.42222 7.3549 5.12222 7.09935 5.83333 6.93268C6.54444 6.75491 7.26667 6.66602 8 6.66602C8.73333 6.66602 9.45556 6.75491 10.1667 6.93268C10.8778 7.09935 11.5778 7.3549 12.2667 7.69935C12.5889 7.86602 12.8444 8.11046 13.0333 8.43268C13.2333 8.74379 13.3333 9.08824 13.3333 9.46602V11.3327H2.66667ZM4 9.99935H12V9.46602C12 9.34379 11.9667 9.23268 11.9 9.13268C11.8444 9.03268 11.7667 8.9549 11.6667 8.89935C11.0667 8.59935 10.4611 8.37713 9.85 8.23268C9.23889 8.07713 8.62222 7.99935 8 7.99935C7.37778 7.99935 6.76111 8.07713 6.15 8.23268C5.53889 8.37713 4.93333 8.59935 4.33333 8.89935C4.23333 8.9549 4.15 9.03268 4.08333 9.13268C4.02778 9.23268 4 9.34379 4 9.46602V9.99935ZM8 5.99935C7.26667 5.99935 6.63889 5.73824 6.11667 5.21602C5.59444 4.69379 5.33333 4.06602 5.33333 3.33268C5.33333 2.59935 5.59444 1.97157 6.11667 1.44935C6.63889 0.927127 7.26667 0.666016 8 0.666016C8.73333 0.666016 9.36111 0.927127 9.88333 1.44935C10.4056 1.97157 10.6667 2.59935 10.6667 3.33268C10.6667 4.06602 10.4056 4.69379 9.88333 5.21602C9.36111 5.73824 8.73333 5.99935 8 5.99935ZM8 4.66602C8.36667 4.66602 8.67778 4.53824 8.93333 4.28268C9.2 4.01602 9.33333 3.69935 9.33333 3.33268C9.33333 2.96602 9.2 2.6549 8.93333 2.39935C8.67778 2.13268 8.36667 1.99935 8 1.99935C7.63333 1.99935 7.31667 2.13268 7.05 2.39935C6.79445 2.6549 6.66667 2.96602 6.66667 3.33268C6.66667 3.69935 6.79445 4.01602 7.05 4.28268C7.31667 4.53824 7.63333 4.66602 8 4.66602ZM13.3333 6.66602C12.7778 6.66602 12.3056 6.47157 11.9167 6.08268C11.5278 5.69379 11.3333 5.22157 11.3333 4.66602C11.3333 4.11046 11.5278 3.63824 11.9167 3.24935C12.3056 2.86046 12.7778 2.66602 13.3333 2.66602C13.8889 2.66602 14.3611 2.86046 14.75 3.24935C15.1389 3.63824 15.3333 4.11046 15.3333 4.66602C15.3333 5.22157 15.1389 5.69379 14.75 6.08268C14.3611 6.47157 13.8889 6.66602 13.3333 6.66602ZM13.3333 5.33268C13.5222 5.33268 13.6778 5.27157 13.8 5.14935C13.9333 5.01602 14 4.8549 14 4.66602C14 4.47713 13.9333 4.32157 13.8 4.19935C13.6778 4.06602 13.5222 3.99935 13.3333 3.99935C13.1444 3.99935 12.9833 4.06602 12.85 4.19935C12.7278 4.32157 12.6667 4.47713 12.6667 4.66602C12.6667 4.8549 12.7278 5.01602 12.85 5.14935C12.9833 5.27157 13.1444 5.33268 13.3333 5.33268ZM14 11.3327V7.29935C14.1667 7.35491 14.3222 7.41602 14.4667 7.48268C14.6222 7.54935 14.7778 7.62157 14.9333 7.69935C15.2667 7.86602 15.5278 8.11046 15.7167 8.43268C15.9056 8.75491 16 9.10491 16 9.48268V11.3327H14Z" fill="#767676"/>
</svg>
