<svg width="16" height="16" viewBox="0 0 16 16" fill="none" xmlns="http://www.w3.org/2000/svg">
<path d="M1 2.55556C1 1.69645 1.69645 1 2.55556 1H5.10608C5.44086 1 5.73807 1.21422 5.84394 1.53182L7.00891 5.02672C7.13131 5.39392 6.96507 5.79524 6.61887 5.96834L4.86323 6.84616C5.72053 8.74761 7.25239 10.2795 9.15384 11.1368L10.0317 9.38113C10.2048 9.03493 10.6061 8.86869 10.9733 8.99109L14.4682 10.1561C14.7858 10.2619 15 10.5591 15 10.8939V13.4444C15 14.3036 14.3036 15 13.4444 15H12.6667C6.22334 15 1 9.77666 1 3.33333V2.55556Z" stroke="#0E131E" stroke-width="2" stroke-linecap="round" stroke-linejoin="round"/>
</svg>
