<svg width="14" height="15" viewBox="0 0 14 15" fill="none" xmlns="http://www.w3.org/2000/svg">
<path fill-rule="evenodd" clip-rule="evenodd" d="M0.0464172 2.03973C0.0464172 1.21525 0.714792 0.546875 1.53927 0.546875H12.4607C13.2852 0.546875 13.9536 1.21525 13.9536 2.03973V6.35215L13.95 6.35214H0.0499584L0.0464172 6.35215V2.03973ZM0.0464172 7.60213V12.9612C0.0464172 13.7857 0.714792 14.4541 1.53927 14.4541H12.4607C13.2852 14.4541 13.9536 13.7857 13.9536 12.9612V7.60213L13.95 7.60214H0.0499584L0.0464172 7.60213ZM6.31418 4.048V3.06943C6.31418 2.51714 5.86647 2.06943 5.31418 2.06943H2.62902C2.07674 2.06943 1.62902 2.51714 1.62902 3.06943V4.048C1.62902 4.60028 2.07674 5.048 2.62902 5.048H5.31418C5.86647 5.048 6.31418 4.60028 6.31418 4.048ZM12.3709 3.06943V4.048C12.3709 4.60028 11.9232 5.048 11.3709 5.048H8.68579C8.1335 5.048 7.68579 4.60028 7.68579 4.048V3.06943C7.68579 2.51714 8.1335 2.06943 8.68579 2.06943H11.3709C11.9232 2.06943 12.3709 2.51714 12.3709 3.06943Z" fill="#767676"/>
</svg>
